# xmcd
# 
# Track frame offsets:
#     150
#     13069
#     25269
#     38903
#     51787
#     63511
#     75825
#     88072
#     101998
#     119523
# 
# Disc length: 1818
# 
# Revision: 0
# Processed by: cddbd v1.5.2PL0 Copyright (c) Steve Scherf et al.
# Submitted via: BonkEnc v1.0.6
# 
DISCID=7d07180a
DTITLE=Merle Haggard - Workin' Man Blues
DYEAR=0
DGENRE=Country
TTITLE0=The Fightin' Side Of Me
TTITLE1=Workin' Man Blues
TTITLE2=Big City
TTITLE3=Let's Chase Each Other Around The Room
TTITLE4=Carolyn
TTITLE5=The Roots Of My Raising
TTITLE6=Tonight The Bottle Let Me Down
TTITLE7=I Threw Away The Rose
TTITLE8=I Think I'll Just Stay Here And Drink
TTITLE9=Today I started loving you again
EXTD=
EXTT0=
EXTT1=
EXTT2=
EXTT3=
EXTT4=
EXTT5=
EXTT6=
EXTT7=
EXTT8=
EXTT9=
PLAYORDER=
